<svg xmlns="http://www.w3.org/2000/svg" viewBox="0 0 1200 630" width="1200" height="630" font-family="ui-sans-serif, system-ui, -apple-system, Segoe UI, Roboto, sans-serif" role="img" aria-label="Header art for Part 9 of &quot;From Vibe Coding to Reconciliation&quot;: One developer, many agents. A rung-9-of-12 position marker on the kazi gradient.">
  <defs>
    <linearGradient id="pa-grad" x1="0" y1="0" x2="1" y2="0">
      <stop offset="0" stop-color="#22d3ee"/>
      <stop offset="0.5" stop-color="#3b82f6"/>
      <stop offset="1" stop-color="#8b5cf6"/>
    </linearGradient>
  </defs>
  <rect width="1200" height="630" fill="#0b1220"/>
  <rect x="0" y="0" width="10" height="630" fill="url(#pa-grad)"/>
  <text x="64" y="96" font-size="22" font-weight="700" letter-spacing="3" fill="#64748b">FROM VIBE CODING TO RECONCILIATION</text>
  <text x="64" y="190" font-size="34" font-weight="800" fill="url(#pa-grad)">Part 09</text>
  <text x="64" y="300" font-size="56" font-weight="800" fill="#e2e8f0"><tspan x="64" dy="0">One developer, many agents</tspan></text>
  <rect x="64" y="470" width="46" height="10" rx="5" fill="url(#pa-grad)" opacity="1"/><rect x="118" y="470" width="46" height="10" rx="5" fill="url(#pa-grad)" opacity="1"/><rect x="172" y="470" width="46" height="10" rx="5" fill="url(#pa-grad)" opacity="1"/><rect x="226" y="470" width="46" height="10" rx="5" fill="url(#pa-grad)" opacity="1"/><rect x="280" y="470" width="46" height="10" rx="5" fill="url(#pa-grad)" opacity="1"/><rect x="334" y="470" width="46" height="10" rx="5" fill="url(#pa-grad)" opacity="1"/><rect x="388" y="470" width="46" height="10" rx="5" fill="url(#pa-grad)" opacity="1"/><rect x="442" y="470" width="46" height="10" rx="5" fill="url(#pa-grad)" opacity="1"/><rect x="496" y="470" width="46" height="10" rx="5" fill="url(#pa-grad)" opacity="1"/><rect x="550" y="470" width="46" height="10" rx="5" fill="#1e293b" opacity="1"/><rect x="604" y="470" width="46" height="10" rx="5" fill="#1e293b" opacity="1"/><rect x="658" y="470" width="46" height="10" rx="5" fill="#1e293b" opacity="1"/>
  <text x="64" y="520" font-size="20" fill="#64748b">Rung 9 of 12</text>
  <text x="1136" y="600" text-anchor="end" font-size="20" font-weight="700" fill="#475569">kazi</text>
</svg>
